PathFileType	4	(X/Y/Z)	Kaydara																																																																																																																									
DataRate	CameraRate	NumFrames	NumMarkers	Units	OrigDataRate	OrigDataStartFrame	OrigNumFrames																																																																																																																					
30	30	8	41	mm	30	163	321																																																																																																																					
Frame#	Time	PAIB_LFHD			PAIB_RFHD			PAIB_LBHD			PAIB_RBHD			PAIB_LFTShould			PAIB_RFTShould			PAIB_LRRShould			PAIB_RRRShould			PAIB_T10			PAIB_STRN			PAIB_TRUN			PAIB_LSHO			PAIB_LUPA			PAIB_LELB			PAIB_LFRM			PAIB_LWRA			PAIB_LWRB			PAIB_LFIN			PAIB_RSHO			PAIB_RUPA			PAIB_RELB			PAIB_RFRM			PAIB_RWRA			PAIB_RWRB			PAIB_RFIN			PAIB_LFWT			PAIB_RFWT			PAIB_LBWT			PAIB_RBWT			PAIB_LTHI			PAIB_LKNE			PAIB_LSHN			PAIB_LANK			PAIB_LHEE			PAIB_LTOE			PAIB_RTHI			PAIB_RKNE			PAIB_RSHN			PAIB_RANK			PAIB_RHEE			PAIB_RTOE		
		X1	Y1	Z1	X2	Y2	Z2	X3	Y3	Z3	X4	Y4	Z4	X5	Y5	Z5	X6	Y6	Z6	X7	Y7	Z7	X8	Y8	Z8	X9	Y9	Z9	X10	Y10	Z10	X11	Y11	Z11	X12	Y12	Z12	X13	Y13	Z13	X14	Y14	Z14	X15	Y15	Z15	X16	Y16	Z16	X17	Y17	Z17	X18	Y18	Z18	X19	Y19	Z19	X20	Y20	Z20	X21	Y21	Z21	X22	Y22	Z22	X23	Y23	Z23	X24	Y24	Z24	X25	Y25	Z25	X26	Y26	Z26	X27	Y27	Z27	X28	Y28	Z28	X29	Y29	Z29	X30	Y30	Z30	X31	Y31	Z31	X32	Y32	Z32	X33	Y33	Z33	X34	Y34	Z34	X35	Y35	Z35	X36	Y36	Z36	X37	Y37	Z37	X38	Y38	Z38	X39	Y39	Z39	X40	Y40	Z40	X41	Y41	Z41
																																																																																																																												
161	5.393	303.97438	1557.16293	-249.38866	121.03145	1578.72437	-259.63371	323.68801	1600.46555	-369.30134	122.12024	1628.04779	-364.14913	259.55294	1356.06979	-372.48119	139.33622	1358.88931	-381.22169	282.77842	1457.26624	-490.72365	127.53703	1462.80151	-492.42207	204.03681	1330.32852	-615.65121	202.22534	1283.84308	-360.51064	197.3123	1180.33348	-369.5446	392.26551	1383.36151	-425.31303	433.69118	1156.02699	-426.0709	453.30315	1067.32513	-460.39265	453.18592	956.18446	-404.0958	370.47791	860.33127	-313.72696	416.71135	829.49432	-372.64881	416.21643	802.67296	-304.40569	13.76569	1383.57086	-433.0101	-55.91152	1227.45255	-515.28545	-81.73799	1115.23796	-551.85318	-97.85881	974.93111	-537.51156	-35.71606	861.66222	-450.52471	-103.61561	851.92696	-500.91145	-94.50216	810.1049	-439.96769	303.94093	932.6123	-433.78067	69.53502	940.49423	-433.22662	237.5322	998.28453	-649.739	93.56344	991.58401	-647.68921	272.75963	736.6011	-674.20959	288.7233	472.31171	-614.96677	254.05283	289.17288	-631.16844	231.30583	116.46896	-737.64412	173.47761	116.83267	-784.73946	218.76324	55.98543	-570.0996	35.05979	674.84276	-568.58677	32.72263	470.00298	-407.13284	85.39881	308.13461	-322.20402	63.19543	88.0274	-333.61149	135.77518	87.97936	-378.0748	62.97208	89.92629	-160.21179
162	5.427	300.44319	1555.53772	-229.89529	117.32004	1575.73669	-239.65275	319.70123	1598.84323	-350.20901	117.71808	1624.79889	-344.22024	257.50751	1353.94058	-352.2966	136.93994	1356.11221	-359.82193	278.74245	1454.84177	-471.34239	123.46402	1459.49448	-471.44123	199.27889	1327.04559	-595.07824	200.79304	1281.33194	-339.52724	196.46255	1177.81822	-348.45539	389.63165	1381.36551	-407.23518	430.88402	1153.54858	-411.63971	450.1638	1065.60539	-447.85652	450.96798	952.91046	-395.18806	368.9658	853.22472	-308.28623	415.65361	824.95514	-368.14709	415.15217	795.58151	-300.96714	10.51648	1380.00732	-410.76691	-58.95331	1223.86024	-493.53333	-84.36755	1111.70212	-530.57877	-100.36386	971.3662	-518.44273	-37.72664	856.50085	-433.87405	-105.99468	847.70798	-484.00322	-96.42521	804.64012	-423.99281	304.18915	930.03273	-413.44524	69.69523	935.79041	-409.54697	234.33779	996.03577	-627.92118	90.3762	987.89764	-624.22009	270.61359	737.54387	-656.71722	288.95964	472.34638	-603.35453	254.78992	289.1197	-624.57291	231.36606	119.31509	-735.89813	173.24179	120.70004	-782.45598	219.25369	55.90402	-570	37.3258	669.80049	-547.55424	36.12814	464.3713	-387.13696	89.33696	308.12271	-294.56095	69.17367	89.10275	-291.91561	141.77746	84.29015	-338.47069	72.00052	104.01328	-120.51284
163	5.46	296.22288	1554.08188	-210.147	112.84952	1572.53357	-219.109	314.55326	1597.24579	-330.69786	112.34339	1621.30798	-323.89275	254.85386	1351.81091	-331.25927	133.94476	1353.15872	-337.38304	273.71878	1452.11868	-451.27159	118.48693	1455.64667	-449.67415	193.55381	1323.09906	-573.67592	198.82029	1278.79517	-317.34507	195.27781	1175.20874	-325.95364	386.27277	1379.32526	-388.72887	427.63168	1151.14761	-397.01466	446.54396	1063.97842	-435.3508	448.73913	949.85779	-386.74221	368.20263	845.8947	-303.53886	415.17319	820.6839	-364.49688	414.84917	788.49426	-298.50687	6.37848	1375.95291	-387.3917	-62.87677	1219.64645	-470.29457	-87.81553	1107.48657	-507.66411	-103.35728	967.06322	-497.13581	-39.61971	851.15341	-414.88468	-108.40817	842.9332	-464.38091	-97.95779	798.90022	-405.16224	304.16946	926.85532	-391.53069	69.79391	931.05568	-384.38816	230.7523	992.89017	-604.46106	86.92489	984.09203	-599.35505	268.28501	737.39304	-637.49065	289.28156	471.7025	-590.15625	254.69902	288.52682	-617.02179	231.6769	122.11022	-733.69576	173.4288	124.63942	-779.96635	219.65477	55.82052	-569.93004	37.3135	665.32333	-524.48792	39.61207	458.60954	-365.5621	94.9066	303.59207	-272.38821	76.73622	84.15134	-268.07323	149.69109	79.34716	-314.45627	78.2437	103.10991	-97.43276
164	5.493	291.05417	1553.08517	-190.1712	107.47652	1569.64325	-198.38247	308.36849	1595.61752	-311.03865	106.03766	1617.7301	-303.50336	251.24041	1349.6344	-309.35015	130.21773	1349.93057	-314.26271	267.98901	1449.21692	-430.66494	112.64675	1451.32156	-427.34058	187.48745	1318.46527	-551.33099	196.08965	1276.26556	-294.1795	193.3219	1172.57904	-302.04351	382.12982	1377.25861	-369.31545	424.23973	1148.85117	-382.15405	442.77275	1062.79648	-422.86892	446.71577	947.27303	-378.32474	368.09269	839.0432	-298.8419	415.06439	816.8766	-360.91385	415.31464	781.97716	-296.40587	1.65128	1371.41678	-363.32451	-67.47585	1214.67537	-445.67654	-91.93893	1102.3275	-483.02841	-106.74124	961.81725	-473.50349	-41.55524	845.43839	-393.03024	-110.93268	837.38174	-441.8549	-99.45701	792.66602	-383.26775	303.53827	922.97119	-368.11623	69.48629	927.38052	-357.27905	227.13928	988.91022	-579.50325	83.02968	980.08789	-573.41297	265.67118	736.58623	-615.68985	288.9817	470.61665	-574.27807	254.52021	287.72572	-607.96055	231.97388	125.46921	-730.82954	173.71098	129.41938	-776.93855	220.00082	55.72348	-569.77619	36.15291	661.38123	-497.24144	43.6521	452.81757	-341.88381	102.24184	294.88525	-255.09428	85.52192	74.48043	-261.98303	155.71312	74.3267	-306.40102	87.58446	84.44063	-90.07687
165	5.527	285.11904	1554.51141	-168.56409	101.38098	1569.18213	-176.49193	301.7074	1596.24039	-289.82327	99.19882	1616.3913	-281.98511	247.49268	1348.66379	-286.43358	125.91591	1347.9982	-290.55496	262.13247	1448.12515	-409.10149	106.11312	1448.33847	-404.32835	181.2706	1315.97031	-528.15357	192.7467	1274.97444	-270.47848	190.91671	1171.27403	-277.67475	377.67124	1376.21735	-348.80005	420.68447	1147.47688	-366.6378	438.69831	1062.70416	-409.49158	444.88167	946.10611	-369.65652	368.49335	833.59123	-293.70611	415.50095	814.73495	-357.23557	416.6375	777.05956	-294.20412	-3.1968	1367.07687	-338.86478	-72.23434	1209.48639	-419.87522	-96.17744	1096.75491	-456.45695	-110.18389	956.40434	-447.44595	-43.59989	839.80568	-368.52955	-113.61275	831.77643	-416.52393	-101.0851	786.73027	-358.41057	301.96617	920.25826	-342.24487	68.52464	927.25113	-329.48994	224.14686	986.25488	-554.828	78.98829	979.57817	-547.55741	262.77243	735.36186	-591.43486	287.3168	469.75796	-555.25665	253.41482	287.68301	-596.24737	232.68637	130.84225	-726.27701	174.76692	136.58707	-772.65427	220.28576	55.56759	-569.2477	34.07133	661.41945	-470.87482	43.00446	450.97904	-321.43684	106.57884	292.76148	-237.38686	92.12027	77.27206	-256.29177	155.9591	75.92986	-295.17485	95.2564	71.20979	-67.27725
166	5.56	278.57443	1558.93921	-145.30882	94.73198	1571.94473	-153.32293	294.8082	1600.19653	-266.69962	92.14385	1618.66898	-259.0506	243.29475	1351.61835	-262.5733	121.65342	1349.67896	-266.2771	256.29984	1451.16974	-385.84465	100.06934	1449.50668	-380.31448	176.23686	1318.14163	-504.36783	189.40269	1277.54494	-246.1278	188.51614	1173.81958	-252.85885	373.25951	1379.25018	-326.9416	416.81259	1150.47562	-349.57989	434.11854	1066.68152	-394.19464	442.97207	949.21722	-359.43275	369.76494	831.772	-288.48154	416.56593	816.89163	-352.93282	419.05674	776.18477	-292.11679	-7.97515	1366.63544	-314.20246	-75.78773	1207.15187	-392.34344	-98.92771	1093.69492	-427.37816	-112.77009	953.76419	-419.01806	-45.73977	836.642	-341.60313	-116.30791	829.07021	-388.85429	-103.17233	783.67683	-331.07857	299.25251	920.8078	-318.4347	66.31006	933.11508	-303.55297	222.91941	987.13898	-529.73747	77.47561	984.90341	-522.28157	260.10483	735.60196	-565.12257	285.1647	470.29579	-530.65086	251.90725	289.85874	-580.83534	233.82206	140.05527	-719.67392	175.86773	147.82616	-765.60471	220.60123	55.34843	-568.1131	28.04608	668.20999	-447.33387	40.84068	455.9996	-297.61322	108.19093	292.61454	-224.51557	89.59755	76.28524	-248.37292	154.38208	77.16579	-293.61994	95.49242	63.18532	-69.49283
167	5.593	272.05915	1565.21561	-122.04843	88.11045	1576.65497	-130.19951	287.99711	1606.53244	-243.40857	85.12642	1623.33252	-235.9527	239.0374	1358.62228	-239.01554	117.65463	1355.35065	-242.29761	250.80299	1457.43149	-362.34646	94.83191	1454.25735	-356.66233	171.86947	1323.01132	-480.21751	186.13237	1283.96561	-221.90842	186.19963	1180.19829	-228.17841	369.19983	1387.14722	-303.54156	412.72396	1158.61504	-330.51186	430.03883	1075.87387	-377.80373	441.50211	957.79419	-347.80842	371.61381	835.49072	-281.11063	418.28129	824.8407	-346.88663	421.82419	781.03691	-288.10104	-12.28751	1370.98221	-289.54069	-77.7961	1209.23515	-364.36882	-100.01627	1095.56877	-398.25207	-114.24776	955.97649	-389.41963	-47.62147	838.26324	-311.74728	-118.48102	831.35048	-359.08516	-105.72806	785.82779	-301.3629	296.11145	925.66071	-294.6665	63.16047	940.61348	-278.33963	220.13239	991.7701	-504.88911	75.0866	991.43669	-497.03323	256.82781	737.18521	-538.14766	284.76103	472.01748	-500.75531	252.00907	293.60252	-561.13846	235.15669	152.45362	-709.21288	177.1291	163.16156	-754.59244	221.02793	55.02008	-566.22959	22.12802	675.39207	-422.90436	39.94815	463.72459	-276.35494	106.81898	293.06049	-215.31519	86.31421	75.62458	-242.42233	152.19407	79.05833	-293.6422	96.27763	60.93624	-68.77038
168	5.627	265.9403	1571.97433	-100.28594	81.85419	1581.85455	-108.7074	281.66044	1613.44696	-221.54381	78.70221	1628.43414	-214.50174	234.91611	1366.23306	-216.1886	113.76341	1361.68167	-218.45333	245.21849	1463.88046	-339.6093	89.72799	1459.59183	-332.86884	166.45496	1327.8035	-455.98755	182.96267	1291.1377	-198.08985	183.90862	1187.25906	-203.73194	364.86256	1396.18835	-280.09737	410.69923	1168.34717	-310.82306	428.04012	1086.95869	-360.99323	441.63197	968.33366	-334.6439	373.94455	842.81509	-270.50226	419.97131	834.88678	-337.25784	424.28841	788.64479	-280.40539	-16.73432	1376.90475	-264.31376	-80.51543	1213.69362	-337.33746	-101.67741	1099.74716	-370.48782	-115.44876	960.04585	-359.59827	-49.48692	843.6837	-279.60653	-119.44998	835.9642	-327.40387	-107.50386	791.17645	-268.89206	293.60598	931.17493	-272.16129	60.52308	945.15503	-252.63494	214.29396	996.87134	-480.7679	69.91929	996.52901	-471.07002	252.66846	737.09679	-511.26118	287.2331	472.79602	-465.92602	254.40271	297.43238	-537.55779	237.32338	166.77641	-695.50079	178.94289	181.02884	-739.4313	221.42269	54.85732	-563.89286	20.80595	680.68802	-404.01283	37.45296	462.337	-265.07618	106.12963	292.5234	-207.20398	86.94575	76.41499	-243.82294	152.20984	80.67801	-293.17533	99.54807	59.43712	-67.01508
